<svg width="535" height="146" viewBox="0 0 535 146" fill="none" xmlns="http://www.w3.org/2000/svg">
<path d="M239.213 75.623C239.213 83.6634 237.667 90.3854 234.574 95.7891C231.514 101.16 227.071 105.213 221.244 107.947C215.417 110.649 208.402 112 200.199 112H179.984V40.6133H202.396C209.883 40.6133 216.378 41.9479 221.879 44.6172C227.38 47.2539 231.645 51.1764 234.672 56.3848C237.699 61.5605 239.213 67.9733 239.213 75.623ZM223.49 76.0137C223.49 70.7402 222.709 66.4108 221.146 63.0254C219.617 59.6074 217.338 57.0846 214.311 55.457C211.316 53.8294 207.605 53.0156 203.178 53.0156H195.121V99.5H201.615C209.005 99.5 214.49 97.5306 218.07 93.5918C221.684 89.653 223.49 83.7936 223.49 76.0137ZM275.346 56.3848C280.391 56.3848 284.737 57.3613 288.383 59.3145C292.029 61.235 294.844 64.0345 296.83 67.7129C298.816 71.3913 299.809 75.8835 299.809 81.1895V88.416H264.604C264.766 92.6152 266.02 95.9193 268.363 98.3281C270.74 100.704 274.027 101.893 278.227 101.893C281.71 101.893 284.9 101.535 287.797 100.818C290.694 100.102 293.673 99.028 296.732 97.5957V109.119C294.031 110.454 291.199 111.43 288.236 112.049C285.307 112.667 281.742 112.977 277.543 112.977C272.074 112.977 267.224 111.967 262.992 109.949C258.793 107.931 255.489 104.855 253.08 100.721C250.704 96.5866 249.516 91.3783 249.516 85.0957C249.516 78.7155 250.59 73.4095 252.738 69.1777C254.919 64.9134 257.947 61.7233 261.82 59.6074C265.694 57.459 270.202 56.3848 275.346 56.3848ZM275.443 66.9805C272.546 66.9805 270.137 67.9082 268.217 69.7637C266.329 71.6191 265.238 74.5326 264.945 78.5039H285.844C285.811 76.2904 285.404 74.321 284.623 72.5957C283.874 70.8704 282.735 69.5033 281.205 68.4941C279.708 67.485 277.787 66.9805 275.443 66.9805ZM340.629 112H325.492V53.2109H306.107V40.6133H360.014V53.2109H340.629V112ZM392.191 56.2871C399.516 56.2871 405.131 57.8822 409.037 61.0723C412.943 64.2624 414.896 69.1126 414.896 75.623V112H404.496L401.615 104.578H401.225C399.662 106.531 398.067 108.126 396.439 109.363C394.812 110.6 392.94 111.512 390.824 112.098C388.708 112.684 386.137 112.977 383.109 112.977C379.887 112.977 376.99 112.358 374.418 111.121C371.879 109.884 369.877 107.996 368.412 105.457C366.947 102.885 366.215 99.6302 366.215 95.6914C366.215 89.8971 368.249 85.6328 372.318 82.8984C376.387 80.1315 382.491 78.6016 390.629 78.3086L400.102 78.0156V75.623C400.102 72.7585 399.353 70.6589 397.855 69.3242C396.358 67.9896 394.275 67.3223 391.605 67.3223C388.969 67.3223 386.381 67.6966 383.842 68.4453C381.303 69.194 378.764 70.138 376.225 71.2773L371.293 61.2188C374.19 59.6888 377.429 58.4844 381.01 57.6055C384.623 56.7266 388.35 56.2871 392.191 56.2871ZM400.102 86.707L394.34 86.9023C389.522 87.0326 386.169 87.8952 384.281 89.4902C382.426 91.0853 381.498 93.1849 381.498 95.7891C381.498 98.0677 382.165 99.6953 383.5 100.672C384.835 101.616 386.576 102.088 388.725 102.088C391.915 102.088 394.6 101.144 396.781 99.2559C398.995 97.3678 400.102 94.6823 400.102 91.1992V86.707ZM468.363 95.7891C468.363 99.5 467.484 102.641 465.727 105.213C464.001 107.752 461.413 109.689 457.963 111.023C454.512 112.326 450.215 112.977 445.072 112.977C441.264 112.977 437.992 112.732 435.258 112.244C432.556 111.756 429.822 110.942 427.055 109.803V97.498C430.017 98.8327 433.191 99.9395 436.576 100.818C439.994 101.665 442.989 102.088 445.561 102.088C448.458 102.088 450.525 101.665 451.762 100.818C453.031 99.9395 453.666 98.8001 453.666 97.4004C453.666 96.4889 453.406 95.6751 452.885 94.959C452.396 94.2103 451.322 93.3802 449.662 92.4688C448.002 91.5247 445.398 90.304 441.85 88.8066C438.432 87.3743 435.616 85.9258 433.402 84.4609C431.221 82.9961 429.594 81.2708 428.52 79.2852C427.478 77.2669 426.957 74.7116 426.957 71.6191C426.957 66.5736 428.91 62.7812 432.816 60.2422C436.755 57.6706 442.012 56.3848 448.588 56.3848C451.973 56.3848 455.196 56.7266 458.256 57.4102C461.348 58.0938 464.522 59.1842 467.777 60.6816L463.285 71.4238C460.583 70.252 458.028 69.2917 455.619 68.543C453.243 67.7943 450.818 67.4199 448.344 67.4199C446.163 67.4199 444.519 67.7129 443.412 68.2988C442.305 68.8848 441.752 69.7799 441.752 70.9844C441.752 71.8633 442.029 72.6445 442.582 73.3281C443.168 74.0117 444.275 74.7767 445.902 75.623C447.562 76.4368 449.988 77.4948 453.178 78.7969C456.27 80.0664 458.956 81.401 461.234 82.8008C463.513 84.168 465.271 85.877 466.508 87.9277C467.745 89.946 468.363 92.5664 468.363 95.7891ZM494.877 36.0234V70.0078C494.877 72.0586 494.796 74.1094 494.633 76.1602C494.47 78.2109 494.291 80.2617 494.096 82.3125H494.291C495.3 80.8802 496.326 79.4642 497.367 78.0645C498.441 76.6647 499.581 75.3138 500.785 74.0117L516.068 57.4102H532.865L511.186 81.0918L534.184 112H516.996L501.273 89.8809L494.877 95.0078V112H479.984V36.0234H494.877Z" fill="white"/>
<path fill-rule="evenodd" clip-rule="evenodd" d="M146 73C146 113.317 113.317 146 73 146C32.6832 146 0 113.317 0 73C0 32.6832 32.6832 0 73 0C113.317 0 146 32.6832 146 73ZM41.4835 51.968H38.4742C34.6945 51.968 31.6305 48.9039 31.6305 45.1242C31.6305 41.3445 34.6945 38.2805 38.4742 38.2805H54.7086C55.4665 38.2805 56.2047 38.3648 56.9143 38.5246C57.624 38.3648 58.3621 38.2805 59.12 38.2805H71.8517C79.4454 38.2805 86.0321 39.6453 91.6118 42.3749C97.1916 45.0712 101.517 49.0824 104.587 54.4084C106.252 57.2785 107.466 60.5206 108.228 64.1347H116.417C118.727 64.1347 120.599 66.0071 120.599 68.3169C120.599 70.6268 118.727 72.4992 116.417 72.4992H109.172C109.186 73.0208 109.193 73.5482 109.193 74.0814C109.193 75.2278 109.162 76.348 109.102 77.4419H116.417C118.727 77.4419 120.599 79.3144 120.599 81.6242C120.599 83.9341 118.727 85.8065 116.417 85.8065H107.923C107.14 89.0832 105.995 92.0487 104.488 94.7032C101.385 100.196 96.8779 104.34 90.968 107.136C85.0581 109.899 77.9432 111.28 69.6231 111.28H59.12C58.9173 111.28 58.7159 111.274 58.5161 111.263C58.3532 111.274 58.1886 111.28 58.0226 111.28C56.352 111.28 54.8245 110.668 53.6526 109.655C50.9232 107.869 49.12 104.785 49.12 101.28V55.5943C47.3132 53.3811 44.5634 51.968 41.4835 51.968ZM64.7086 98.498H71.0593C78.554 98.498 84.1172 96.4841 87.749 92.4563C89.4021 90.6393 90.6824 88.4228 91.5899 85.8065H85.2398C82.93 85.8065 81.0575 83.9341 81.0575 81.6242C81.0575 79.3144 82.93 77.4419 85.2398 77.4419H93.1559C93.2161 76.4872 93.2461 75.5001 93.2461 74.4809C93.2461 73.8052 93.2337 73.1446 93.2088 72.4992H85.2398C82.93 72.4992 81.0575 70.6268 81.0575 68.3169C81.0575 66.0071 82.93 64.1347 85.2398 64.1347H91.9561C91.6486 63.0892 91.2863 62.1107 90.869 61.1991C89.3172 57.7039 87.0061 55.1241 83.9356 53.4597C80.8981 51.7953 77.1343 50.9631 72.6441 50.9631H64.7086V98.498Z" fill="white"/>
</svg>
